%TF.GenerationSoftware,KiCad,Pcbnew,7.0.9*%
%TF.CreationDate,2023-11-22T22:42:55-07:00*%
%TF.ProjectId,OrnamentSCH,4f726e61-6d65-46e7-9453-43482e6b6963,rev?*%
%TF.SameCoordinates,Original*%
%TF.FileFunction,Copper,L2,Bot*%
%TF.FilePolarity,Positive*%
%FSLAX46Y46*%
G04 Gerber Fmt 4.6, Leading zero omitted, Abs format (unit mm)*
G04 Created by KiCad (PCBNEW 7.0.9) date 2023-11-22 22:42:55*
%MOMM*%
%LPD*%
G01*
G04 APERTURE LIST*
G04 Aperture macros list*
%AMRoundRect*
0 Rectangle with rounded corners*
0 $1 Rounding radius*
0 $2 $3 $4 $5 $6 $7 $8 $9 X,Y pos of 4 corners*
0 Add a 4 corners polygon primitive as box body*
4,1,4,$2,$3,$4,$5,$6,$7,$8,$9,$2,$3,0*
0 Add four circle primitives for the rounded corners*
1,1,$1+$1,$2,$3*
1,1,$1+$1,$4,$5*
1,1,$1+$1,$6,$7*
1,1,$1+$1,$8,$9*
0 Add four rect primitives between the rounded corners*
20,1,$1+$1,$2,$3,$4,$5,0*
20,1,$1+$1,$4,$5,$6,$7,0*
20,1,$1+$1,$6,$7,$8,$9,0*
20,1,$1+$1,$8,$9,$2,$3,0*%
G04 Aperture macros list end*
%TA.AperFunction,NonConductor*%
%ADD10C,0.200000*%
%TD*%
%TA.AperFunction,SMDPad,CuDef*%
%ADD11R,2.000000X4.000000*%
%TD*%
%TA.AperFunction,SMDPad,CuDef*%
%ADD12R,1.200000X2.500000*%
%TD*%
%TA.AperFunction,SMDPad,CuDef*%
%ADD13RoundRect,0.225000X0.250000X-0.225000X0.250000X0.225000X-0.250000X0.225000X-0.250000X-0.225000X0*%
%TD*%
%TA.AperFunction,SMDPad,CuDef*%
%ADD14R,1.750000X1.750000*%
%TD*%
%TA.AperFunction,SMDPad,CuDef*%
%ADD15C,1.750000*%
%TD*%
%TA.AperFunction,SMDPad,CuDef*%
%ADD16R,1.700000X0.650000*%
%TD*%
%TA.AperFunction,ViaPad*%
%ADD17C,0.800000*%
%TD*%
%TA.AperFunction,Conductor*%
%ADD18C,0.250000*%
%TD*%
G04 APERTURE END LIST*
D10*
X156750000Y-34860000D02*
X157040000Y-35000000D01*
X157270000Y-35310000D01*
X158700000Y-39100000D01*
X163830000Y-39290000D01*
X164180000Y-39330000D01*
X164430000Y-39410000D01*
X164580000Y-39490000D01*
X164660000Y-39630000D01*
X164660000Y-39830000D01*
X164600000Y-39980000D01*
X164200000Y-40390000D01*
X163350000Y-40980000D01*
X162460000Y-41500000D01*
X160820000Y-42500000D01*
X160510000Y-42690000D01*
X160360000Y-42810000D01*
X160320000Y-42900000D01*
X160500000Y-43410000D01*
X161000000Y-44700000D01*
X161650000Y-46490000D01*
X161860000Y-47170000D01*
X161830000Y-47430000D01*
X161720000Y-47570000D01*
X161410000Y-47600000D01*
X160940000Y-47500000D01*
X160300000Y-47210000D01*
X158530000Y-46130000D01*
X158090000Y-45920000D01*
X157810000Y-45920000D01*
X157680000Y-46110000D01*
X158790000Y-48620000D01*
X159630000Y-50200000D01*
X161080000Y-52450000D01*
X161980000Y-53430000D01*
X163110000Y-54580000D01*
X164410000Y-55770000D01*
X165800000Y-56930000D01*
X167190000Y-57890000D01*
X168440000Y-58520000D01*
X169450000Y-59270000D01*
X169700000Y-59590000D01*
X169470000Y-59920000D01*
X168790000Y-60560000D01*
X167790000Y-61100000D01*
X167060000Y-61170000D01*
X166600000Y-61350000D01*
X166390000Y-61680000D01*
X166390000Y-62480000D01*
X166800000Y-63590000D01*
X168290000Y-65860000D01*
X169480000Y-67400000D01*
X170780000Y-68860000D01*
X173350000Y-71360000D01*
X175510000Y-73040000D01*
X176650000Y-73770000D01*
X177500000Y-74500000D01*
X177930000Y-75040000D01*
X178040000Y-75720000D01*
X177820000Y-76340000D01*
X177210000Y-76930000D01*
X176270000Y-77420000D01*
X175090000Y-77810000D01*
X173810000Y-77980000D01*
X172730000Y-78170000D01*
X172210000Y-78450000D01*
X172100000Y-79100000D01*
X172750000Y-80440000D01*
X174090000Y-82340000D01*
X176030000Y-84710000D01*
X178680000Y-87490000D01*
X181060000Y-89200000D01*
X184180000Y-90680000D01*
X184750000Y-91050000D01*
X184790000Y-91200000D01*
X183290000Y-91270000D01*
X182160000Y-91470000D01*
X181860000Y-91700000D01*
X181810000Y-92120000D01*
X186430000Y-96130000D01*
X188190000Y-97760000D01*
X188390000Y-98140000D01*
X186960000Y-98650000D01*
X183890000Y-99180000D01*
X179080000Y-99820000D01*
X178400000Y-100120000D01*
X178120000Y-100540000D01*
X178250000Y-101140000D01*
X182500000Y-106200000D01*
X183180000Y-106930000D01*
X184870000Y-108640000D01*
X187440000Y-110970000D01*
X191060000Y-113320000D01*
X192590000Y-114160000D01*
X196920000Y-115750000D01*
X198260000Y-116300000D01*
X198360000Y-116580000D01*
X197940000Y-116750000D01*
X196380000Y-117130000D01*
X195620000Y-117600000D01*
X195350000Y-118340000D01*
X195350000Y-119090000D01*
X201260000Y-123560000D01*
X202620000Y-124590000D01*
X203050000Y-125020000D01*
X203010000Y-125640000D01*
X202630000Y-126040000D01*
X201850000Y-126380000D01*
X199240000Y-127110000D01*
X195320000Y-128200000D01*
X193020000Y-129000000D01*
X189770000Y-130530000D01*
X187800000Y-131800000D01*
X186990000Y-131990000D01*
X184690000Y-131810000D01*
X180500000Y-131300000D01*
X176670000Y-131020000D01*
X172780000Y-131170000D01*
X168680000Y-131540000D01*
X164070000Y-132380000D01*
X161220000Y-133360000D01*
X161810000Y-146790000D01*
X160830000Y-147090000D01*
X159470000Y-146910000D01*
X159040000Y-146510000D01*
X158730000Y-146510000D01*
X157900000Y-146840000D01*
X154730000Y-147050000D01*
X151630000Y-146980000D01*
X151290000Y-146860000D01*
X151440000Y-140860000D01*
X151540000Y-132440000D01*
X146230000Y-131630000D01*
X140460000Y-131160000D01*
X135450000Y-130980000D01*
X132630000Y-131350000D01*
X127500000Y-132190000D01*
X126150000Y-132160000D01*
X120280000Y-128830000D01*
X110380000Y-125830000D01*
X109910000Y-125190000D01*
X114580000Y-121670000D01*
X120900000Y-116190000D01*
X123670000Y-113310000D01*
X123690000Y-112390000D01*
X121160000Y-110720000D01*
X120420000Y-110120000D01*
X123650000Y-109090000D01*
X129230000Y-106180000D01*
X132260000Y-103770000D01*
X134770000Y-100710000D01*
X134730000Y-100120000D01*
X134120000Y-99890000D01*
X129570000Y-99320000D01*
X126660000Y-98770000D01*
X125160000Y-98340000D01*
X124780000Y-98010000D01*
X131150000Y-94230000D01*
X135850000Y-90400000D01*
X136010000Y-89810000D01*
X135910000Y-89290000D01*
X135330000Y-88960000D01*
X132130000Y-88780000D01*
X137430000Y-84360000D01*
X142050000Y-79630000D01*
X144100000Y-76710000D01*
X144080000Y-75860000D01*
X143700000Y-75300000D01*
X138000000Y-75400000D01*
X137320000Y-75280000D01*
X137170000Y-74890000D01*
X141500000Y-71570000D01*
X144160000Y-69140000D01*
X144170000Y-68670000D01*
X141740000Y-68680000D01*
X141510000Y-68440000D01*
X147720000Y-63250000D01*
X148920000Y-61960000D01*
X149010000Y-61420000D01*
X146150000Y-61130000D01*
X144970000Y-60660000D01*
X144540000Y-60050000D01*
X148620000Y-56300000D01*
X151740000Y-52930000D01*
X153850000Y-49590000D01*
X155110000Y-46570000D01*
X155080000Y-46230000D01*
X154890000Y-46070000D01*
X152450000Y-47430000D01*
X151670000Y-47620000D01*
X151200000Y-47530000D01*
X151100000Y-47220000D01*
X151830000Y-44910000D01*
X152670000Y-42770000D01*
X148150000Y-39970000D01*
X148040000Y-39540000D01*
X148490000Y-39250000D01*
X154100000Y-39140000D01*
X155840000Y-35000000D01*
X156490000Y-34830000D01*
X156540000Y-34830000D01*
X156750000Y-34860000D01*
D11*
%TO.P,J1,1,Pin_1*%
%TO.N,+3V0*%
X154762200Y-65024000D03*
%TO.P,J1,2,Pin_2*%
%TO.N,GND*%
X159762200Y-65024000D03*
%TD*%
D12*
%TO.P,SW2,1,A*%
%TO.N,unconnected-(SW2-A-Pad1)*%
X132440000Y-127000000D03*
%TO.P,SW2,2,B*%
%TO.N,/SCK*%
X129940000Y-127000000D03*
%TO.P,SW2,3,C*%
%TO.N,GND*%
X127440000Y-127000000D03*
%TD*%
D13*
%TO.P,C2,1*%
%TO.N,/VCC*%
X149640000Y-125910000D03*
%TO.P,C2,2*%
%TO.N,GND*%
X149640000Y-124360000D03*
%TD*%
D14*
%TO.P,J2,1,Pin_1*%
%TO.N,/MISO*%
X186359800Y-127990600D03*
D15*
%TO.P,J2,2,Pin_2*%
%TO.N,/VCC*%
X183819800Y-127990600D03*
%TO.P,J2,3,Pin_3*%
%TO.N,/SCK*%
X181279800Y-127990600D03*
%TO.P,J2,4,Pin_4*%
%TO.N,/MOSI*%
X178739800Y-127990600D03*
%TO.P,J2,5,Pin_5*%
%TO.N,/RESET*%
X176199800Y-127990600D03*
%TO.P,J2,6,Pin_6*%
%TO.N,GND*%
X173659800Y-127990600D03*
%TD*%
D12*
%TO.P,SW1,1,A*%
%TO.N,+3V0*%
X144640000Y-126980000D03*
%TO.P,SW1,2,B*%
%TO.N,/VCC*%
X142140000Y-126980000D03*
%TO.P,SW1,3,C*%
%TO.N,unconnected-(SW1-C-Pad3)*%
X139640000Y-126980000D03*
%TD*%
D13*
%TO.P,C1,1*%
%TO.N,/VCC*%
X151750000Y-125950000D03*
%TO.P,C1,2*%
%TO.N,GND*%
X151750000Y-124400000D03*
%TD*%
D16*
%TO.P,U1,1,~{RESET}/PB5*%
%TO.N,/RESET*%
X160985200Y-125958600D03*
%TO.P,U1,2,XTAL1/PB3*%
%TO.N,/PB3*%
X160985200Y-127228600D03*
%TO.P,U1,3,XTAL2/PB4*%
%TO.N,/PB4*%
X160985200Y-128498600D03*
%TO.P,U1,4,GND*%
%TO.N,GND*%
X160985200Y-129768600D03*
%TO.P,U1,5,AREF/PB0*%
%TO.N,/MOSI*%
X153685200Y-129768600D03*
%TO.P,U1,6,PB1*%
%TO.N,/MISO*%
X153685200Y-128498600D03*
%TO.P,U1,7,PB2*%
%TO.N,/SCK*%
X153685200Y-127228600D03*
%TO.P,U1,8,VCC*%
%TO.N,/VCC*%
X153685200Y-125958600D03*
%TD*%
D17*
%TO.N,/PB3*%
X153980000Y-44020000D03*
X159186800Y-126551500D03*
X156610000Y-46110000D03*
%TO.N,/PB4*%
X159318500Y-127995600D03*
%TO.N,GND*%
X158410800Y-68295500D03*
X163630000Y-110960000D03*
X153090000Y-123680000D03*
X165140000Y-108160000D03*
X147110000Y-87430000D03*
X158410800Y-86623200D03*
X142803500Y-114285500D03*
X158450000Y-129050000D03*
X144470000Y-84980000D03*
%TD*%
D18*
%TO.N,/PB3*%
X154100000Y-43900000D02*
X153980000Y-44020000D01*
X156300000Y-43900000D02*
X154100000Y-43900000D01*
X159809900Y-127174600D02*
X159186800Y-126551500D01*
X156300000Y-45800000D02*
X156300000Y-43900000D01*
X156610000Y-46110000D02*
X156300000Y-45800000D01*
X160985200Y-127228600D02*
X159809900Y-127228600D01*
X159809900Y-127228600D02*
X159809900Y-127174600D01*
%TO.N,/PB4*%
X159809900Y-128498600D02*
X159809900Y-128487000D01*
X160985200Y-128498600D02*
X159809900Y-128498600D01*
X159809900Y-128487000D02*
X159318500Y-127995600D01*
%TO.N,/RESET*%
X162160500Y-125958600D02*
X174167800Y-125958600D01*
X160985200Y-125958600D02*
X162160500Y-125958600D01*
X174167800Y-125958600D02*
X176199800Y-127990600D01*
%TO.N,GND*%
X144911051Y-130651051D02*
X145280000Y-131020000D01*
X147110000Y-86190000D02*
X147090000Y-86170000D01*
X162160500Y-130284700D02*
X161641500Y-130803700D01*
X145900000Y-84980000D02*
X144470000Y-84980000D01*
X135195212Y-130584788D02*
X135530000Y-130250000D01*
X159168600Y-129768600D02*
X160985200Y-129768600D01*
X131359400Y-130803700D02*
X133526742Y-130803700D01*
X140282000Y-114285500D02*
X128365300Y-126202200D01*
X151710000Y-124360000D02*
X151750000Y-124400000D01*
X145280000Y-131020000D02*
X161425200Y-131020000D01*
X158410800Y-68295500D02*
X158410800Y-86623200D01*
X160985200Y-129768600D02*
X162160500Y-129768600D01*
X147090000Y-86170000D02*
X145900000Y-84980000D01*
X127440000Y-127000000D02*
X128185300Y-127000000D01*
X173659800Y-127990600D02*
X163938500Y-127990600D01*
X161425200Y-131020000D02*
X161641500Y-130803700D01*
X163938500Y-127990600D02*
X162160500Y-129768600D01*
X165140000Y-109450000D02*
X163630000Y-110960000D01*
X128185300Y-127000000D02*
X128365300Y-126820000D01*
X151730000Y-124390000D02*
X151750000Y-124410000D01*
X137730000Y-130250000D02*
X138131051Y-130651051D01*
X159357000Y-67349300D02*
X158410800Y-68295500D01*
X158450000Y-129050000D02*
X159168600Y-129768600D01*
X128365300Y-127809600D02*
X131359400Y-130803700D01*
X162160500Y-129768600D02*
X162160500Y-130284700D01*
X135530000Y-130250000D02*
X137730000Y-130250000D01*
X151750000Y-124400000D02*
X152370000Y-124400000D01*
X128365300Y-126202200D02*
X128365300Y-127809600D01*
X152370000Y-124400000D02*
X153090000Y-123680000D01*
X159762200Y-67349300D02*
X159357000Y-67349300D01*
X147110000Y-87430000D02*
X147110000Y-86190000D01*
X138131051Y-130651051D02*
X144911051Y-130651051D01*
X165140000Y-108160000D02*
X165140000Y-109450000D01*
X133526742Y-130803700D02*
X135195212Y-130584788D01*
X142803500Y-114285500D02*
X140282000Y-114285500D01*
X159762200Y-65024000D02*
X159762200Y-67349300D01*
X149640000Y-124360000D02*
X151710000Y-124360000D01*
%TO.N,/MOSI*%
X154860500Y-129768600D02*
X159320900Y-125308200D01*
X159320900Y-125308200D02*
X176057400Y-125308200D01*
X153685200Y-129768600D02*
X154860500Y-129768600D01*
X176057400Y-125308200D02*
X178739800Y-127990600D01*
%TO.N,/MISO*%
X180723700Y-129190900D02*
X184334400Y-129190900D01*
X158513200Y-124845900D02*
X177300800Y-124845900D01*
X185159500Y-128365800D02*
X185159500Y-127990600D01*
X177300800Y-124845900D02*
X180009800Y-127554900D01*
X154860500Y-128498600D02*
X158513200Y-124845900D01*
X184334400Y-129190900D02*
X185159500Y-128365800D01*
X186359800Y-127990600D02*
X185159500Y-127990600D01*
X180009800Y-128477000D02*
X180723700Y-129190900D01*
X180009800Y-127554900D02*
X180009800Y-128477000D01*
X153685200Y-128498600D02*
X154860500Y-128498600D01*
%TO.N,/SCK*%
X153685200Y-127228600D02*
X154860500Y-127228600D01*
X130640000Y-127000000D02*
X131090000Y-127450000D01*
X154860500Y-127228600D02*
X157693600Y-124395500D01*
X131090000Y-127450000D02*
X131090000Y-128034300D01*
X150681100Y-129030900D02*
X152483400Y-127228600D01*
X157693600Y-124395500D02*
X177684700Y-124395500D01*
X132086600Y-129030900D02*
X150681100Y-129030900D01*
X152483400Y-127228600D02*
X153685200Y-127228600D01*
X177684700Y-124395500D02*
X181279800Y-127990600D01*
X129940000Y-127000000D02*
X130640000Y-127000000D01*
X131090000Y-128034300D02*
X132086600Y-129030900D01*
%TO.N,+3V0*%
X144640000Y-126980000D02*
X145565300Y-126980000D01*
X154762200Y-65024000D02*
X154762200Y-117783100D01*
X154762200Y-117783100D02*
X145565300Y-126980000D01*
%TO.N,/VCC*%
X156899400Y-123919700D02*
X154860500Y-125958600D01*
X183819800Y-127990600D02*
X179748900Y-123919700D01*
X149640000Y-125910000D02*
X148497700Y-125910000D01*
X145852400Y-128555300D02*
X143905200Y-128555300D01*
X153685200Y-125958600D02*
X151758600Y-125958600D01*
X143905200Y-128555300D02*
X143130000Y-127780100D01*
X143130000Y-127780100D02*
X143130000Y-127390000D01*
X148497700Y-125910000D02*
X145852400Y-128555300D01*
X143130000Y-127390000D02*
X142720000Y-126980000D01*
X151750000Y-125950000D02*
X149680000Y-125950000D01*
X151758600Y-125958600D02*
X151750000Y-125950000D01*
X149680000Y-125950000D02*
X149640000Y-125910000D01*
X149660000Y-125960000D02*
X149640000Y-125940000D01*
X153685200Y-125958600D02*
X154860500Y-125958600D01*
X179748900Y-123919700D02*
X156899400Y-123919700D01*
X142720000Y-126980000D02*
X142140000Y-126980000D01*
%TD*%
M02*
