%TF.GenerationSoftware,KiCad,Pcbnew,7.0.9*%
%TF.CreationDate,2023-11-22T22:42:55-07:00*%
%TF.ProjectId,OrnamentSCH,4f726e61-6d65-46e7-9453-43482e6b6963,rev?*%
%TF.SameCoordinates,Original*%
%TF.FileFunction,Legend,Bot*%
%TF.FilePolarity,Positive*%
%FSLAX46Y46*%
G04 Gerber Fmt 4.6, Leading zero omitted, Abs format (unit mm)*
G04 Created by KiCad (PCBNEW 7.0.9) date 2023-11-22 22:42:55*
%MOMM*%
%LPD*%
G01*
G04 APERTURE LIST*
%ADD10C,0.177800*%
%ADD11C,0.150000*%
%ADD12C,0.254000*%
%ADD13C,0.120000*%
G04 APERTURE END LIST*
D10*
X191321541Y-126153964D02*
X191321519Y-125573274D01*
X186090000Y-122420000D02*
X186067199Y-122606743D01*
X186082220Y-122790657D01*
X186090000Y-122821609D01*
X191321497Y-122941114D02*
X191321497Y-122229487D01*
X187101603Y-122941114D02*
X189211548Y-122941114D01*
X193164929Y-125443023D02*
X193164929Y-124211065D01*
X192327844Y-121649141D02*
X192327844Y-122941218D01*
X194967433Y-123435828D02*
X194821400Y-123314234D01*
X194633167Y-123250361D01*
X194436647Y-123266613D01*
X194309785Y-123323458D01*
X193155499Y-122941218D02*
X193155499Y-121399906D01*
X191206280Y-120360769D02*
X192327844Y-120357069D01*
X190110236Y-124981333D02*
X189909033Y-124944669D01*
X189713011Y-124885187D01*
X189523649Y-124803557D01*
X189342425Y-124700449D01*
X189170820Y-124576534D01*
X189116011Y-124530721D01*
X193165171Y-126674731D02*
X193164929Y-125443023D01*
X186925982Y-123159753D02*
X187051897Y-123028740D01*
X187091803Y-122966004D01*
X187091803Y-122966004D02*
X187101603Y-122941114D01*
X190745430Y-121522054D02*
X190544760Y-121523706D01*
X190360321Y-121526164D01*
X190179030Y-121534057D01*
X190000075Y-121578694D01*
X187780504Y-123575840D02*
X187778204Y-125125283D01*
X191321497Y-122229487D02*
X191321497Y-121517854D01*
X187778204Y-125125283D02*
X187775904Y-126674731D01*
X190573202Y-124211048D02*
X192327892Y-124211048D01*
X187785158Y-122300811D02*
X187444220Y-122300529D01*
X187785158Y-121079707D02*
X187785158Y-122300811D01*
X192327844Y-122941218D02*
X192741671Y-122941218D01*
X187444220Y-122300529D02*
X187103286Y-122300246D01*
X186090000Y-122821609D02*
X186168154Y-122997130D01*
X186298046Y-123146722D01*
X186462969Y-123237329D01*
X186587557Y-123260707D01*
X194691756Y-124521153D02*
X194856645Y-124446823D01*
X194965877Y-124347708D01*
X191321519Y-125573274D02*
X191321519Y-124992573D01*
X187785158Y-119858604D02*
X187785158Y-121079707D01*
X187080516Y-122257636D02*
X186964633Y-122115754D01*
X186805641Y-122013586D01*
X186783520Y-122004950D01*
X186719139Y-123255583D02*
X186889492Y-123184840D01*
X186925982Y-123159753D01*
X189369923Y-122300394D02*
X188854994Y-122300509D01*
X192741671Y-122941218D02*
X193155499Y-122941218D01*
X193164929Y-124211065D02*
X193625327Y-124211065D01*
X190470331Y-119858604D02*
X187785158Y-119858604D01*
X194085775Y-123570640D02*
X190933137Y-123573240D01*
X190761542Y-124992573D02*
X190558879Y-124991928D01*
X190380142Y-124990113D01*
X190188929Y-124985848D01*
X190110236Y-124981333D01*
X191824714Y-126153964D02*
X191321541Y-126153964D01*
X188854994Y-122300509D02*
X188659605Y-122300413D01*
X188479268Y-122299300D01*
X188340264Y-122281639D01*
X190933137Y-123573240D02*
X187780504Y-123575840D01*
X186587557Y-123260707D02*
X186719125Y-123255507D01*
X192327844Y-120357069D02*
X192327844Y-121649141D01*
X187103286Y-122300246D02*
X187080516Y-122257636D01*
X188818512Y-124211048D02*
X190573202Y-124211048D01*
X194309785Y-123323458D02*
X194170134Y-123447893D01*
X194113745Y-123523690D01*
X192327892Y-126153964D02*
X191824714Y-126153964D01*
X190470559Y-126674731D02*
X193165171Y-126674731D01*
X186783520Y-122004950D02*
X186605422Y-121979917D01*
X186450108Y-122007050D01*
X188854002Y-124261088D02*
X188818512Y-124211048D01*
X192327892Y-125182509D02*
X192327892Y-126153964D01*
X189116011Y-124530721D02*
X188983044Y-124405365D01*
X188862651Y-124272723D01*
X188854002Y-124261088D01*
X194113736Y-124258015D02*
X194243059Y-124409477D01*
X194407950Y-124504669D01*
X194589991Y-124535208D01*
X194691756Y-124521153D01*
X190000075Y-121578694D02*
X189832613Y-121666049D01*
X189678351Y-121790929D01*
X189544908Y-121945160D01*
X189439904Y-122120568D01*
X189395603Y-122227164D01*
X194965877Y-124347708D02*
X195066337Y-124195391D01*
X195120141Y-124022216D01*
X195130479Y-123894110D01*
X186450108Y-122007050D02*
X186290524Y-122101774D01*
X186165994Y-122248782D01*
X186090000Y-122420000D01*
D11*
X145376900Y-68072000D02*
X169430700Y-68072000D01*
X169430700Y-120929400D01*
X145376900Y-120929400D01*
X145376900Y-68072000D01*
D10*
X193155499Y-119858604D02*
X190470331Y-119858604D01*
X188340264Y-122281639D02*
X188372539Y-122105554D01*
X188414344Y-121943108D01*
X192327892Y-124211048D02*
X192327892Y-125182509D01*
X193155499Y-121399906D02*
X193155499Y-119858604D01*
X195130479Y-123894110D02*
X195107725Y-123703039D01*
X195038875Y-123534943D01*
X194967433Y-123435828D01*
X194085726Y-124211065D02*
X194113736Y-124258015D01*
X188414344Y-121943108D02*
X188476606Y-121755481D01*
X188552128Y-121576986D01*
X188641208Y-121407071D01*
X188744144Y-121245185D01*
X188861234Y-121090777D01*
X188903462Y-121040875D01*
X191321497Y-121517854D02*
X190745430Y-121522054D01*
X189395603Y-122227164D02*
X189369923Y-122300394D01*
X188903462Y-121040875D02*
X189048136Y-120888355D01*
X189200523Y-120755178D01*
X189361358Y-120640897D01*
X189531373Y-120545067D01*
X189711302Y-120467245D01*
X189901879Y-120406985D01*
X189981256Y-120387699D01*
X193625327Y-124211065D02*
X194085726Y-124211065D01*
X189211548Y-122941114D02*
X191321497Y-122941114D01*
X194113745Y-123523690D02*
X194085775Y-123570640D01*
X189981256Y-120387699D02*
X190166887Y-120368561D01*
X190362798Y-120364977D01*
X190565833Y-120363383D01*
X190765699Y-120362394D01*
X191012665Y-120361443D01*
X191206280Y-120360769D01*
X187775904Y-126674731D02*
X190470559Y-126674731D01*
X191321519Y-124992573D02*
X190761542Y-124992573D01*
D12*
X192820514Y-117136668D02*
X192820514Y-115866668D01*
X192820514Y-115866668D02*
X192397180Y-116773811D01*
X192397180Y-116773811D02*
X191973847Y-115866668D01*
X191973847Y-115866668D02*
X191973847Y-117136668D01*
X190885275Y-117076192D02*
X191006227Y-117136668D01*
X191006227Y-117136668D02*
X191248132Y-117136668D01*
X191248132Y-117136668D02*
X191369085Y-117076192D01*
X191369085Y-117076192D02*
X191429561Y-116955239D01*
X191429561Y-116955239D02*
X191429561Y-116471430D01*
X191429561Y-116471430D02*
X191369085Y-116350477D01*
X191369085Y-116350477D02*
X191248132Y-116290001D01*
X191248132Y-116290001D02*
X191006227Y-116290001D01*
X191006227Y-116290001D02*
X190885275Y-116350477D01*
X190885275Y-116350477D02*
X190824799Y-116471430D01*
X190824799Y-116471430D02*
X190824799Y-116592382D01*
X190824799Y-116592382D02*
X191429561Y-116713334D01*
X190280514Y-117136668D02*
X190280514Y-116290001D01*
X190280514Y-116531906D02*
X190220037Y-116410953D01*
X190220037Y-116410953D02*
X190159561Y-116350477D01*
X190159561Y-116350477D02*
X190038609Y-116290001D01*
X190038609Y-116290001D02*
X189917656Y-116290001D01*
X189494324Y-117136668D02*
X189494324Y-116290001D01*
X189494324Y-116531906D02*
X189433847Y-116410953D01*
X189433847Y-116410953D02*
X189373371Y-116350477D01*
X189373371Y-116350477D02*
X189252419Y-116290001D01*
X189252419Y-116290001D02*
X189131466Y-116290001D01*
X188829086Y-116290001D02*
X188526705Y-117136668D01*
X188224324Y-116290001D02*
X188526705Y-117136668D01*
X188526705Y-117136668D02*
X188647657Y-117439049D01*
X188647657Y-117439049D02*
X188708134Y-117499525D01*
X188708134Y-117499525D02*
X188829086Y-117560001D01*
X186047181Y-117015715D02*
X186107657Y-117076192D01*
X186107657Y-117076192D02*
X186289086Y-117136668D01*
X186289086Y-117136668D02*
X186410038Y-117136668D01*
X186410038Y-117136668D02*
X186591467Y-117076192D01*
X186591467Y-117076192D02*
X186712419Y-116955239D01*
X186712419Y-116955239D02*
X186772896Y-116834287D01*
X186772896Y-116834287D02*
X186833372Y-116592382D01*
X186833372Y-116592382D02*
X186833372Y-116410953D01*
X186833372Y-116410953D02*
X186772896Y-116169049D01*
X186772896Y-116169049D02*
X186712419Y-116048096D01*
X186712419Y-116048096D02*
X186591467Y-115927144D01*
X186591467Y-115927144D02*
X186410038Y-115866668D01*
X186410038Y-115866668D02*
X186289086Y-115866668D01*
X186289086Y-115866668D02*
X186107657Y-115927144D01*
X186107657Y-115927144D02*
X186047181Y-115987620D01*
X185502896Y-117136668D02*
X185502896Y-115866668D01*
X184958610Y-117136668D02*
X184958610Y-116471430D01*
X184958610Y-116471430D02*
X185019086Y-116350477D01*
X185019086Y-116350477D02*
X185140038Y-116290001D01*
X185140038Y-116290001D02*
X185321467Y-116290001D01*
X185321467Y-116290001D02*
X185442419Y-116350477D01*
X185442419Y-116350477D02*
X185502896Y-116410953D01*
X184353848Y-117136668D02*
X184353848Y-116290001D01*
X184353848Y-116531906D02*
X184293371Y-116410953D01*
X184293371Y-116410953D02*
X184232895Y-116350477D01*
X184232895Y-116350477D02*
X184111943Y-116290001D01*
X184111943Y-116290001D02*
X183990990Y-116290001D01*
X183567658Y-117136668D02*
X183567658Y-116290001D01*
X183567658Y-115866668D02*
X183628134Y-115927144D01*
X183628134Y-115927144D02*
X183567658Y-115987620D01*
X183567658Y-115987620D02*
X183507181Y-115927144D01*
X183507181Y-115927144D02*
X183567658Y-115866668D01*
X183567658Y-115866668D02*
X183567658Y-115987620D01*
X183023372Y-117076192D02*
X182902419Y-117136668D01*
X182902419Y-117136668D02*
X182660515Y-117136668D01*
X182660515Y-117136668D02*
X182539562Y-117076192D01*
X182539562Y-117076192D02*
X182479086Y-116955239D01*
X182479086Y-116955239D02*
X182479086Y-116894763D01*
X182479086Y-116894763D02*
X182539562Y-116773811D01*
X182539562Y-116773811D02*
X182660515Y-116713334D01*
X182660515Y-116713334D02*
X182841943Y-116713334D01*
X182841943Y-116713334D02*
X182962896Y-116652858D01*
X182962896Y-116652858D02*
X183023372Y-116531906D01*
X183023372Y-116531906D02*
X183023372Y-116471430D01*
X183023372Y-116471430D02*
X182962896Y-116350477D01*
X182962896Y-116350477D02*
X182841943Y-116290001D01*
X182841943Y-116290001D02*
X182660515Y-116290001D01*
X182660515Y-116290001D02*
X182539562Y-116350477D01*
X182116229Y-116290001D02*
X181632420Y-116290001D01*
X181934801Y-115866668D02*
X181934801Y-116955239D01*
X181934801Y-116955239D02*
X181874324Y-117076192D01*
X181874324Y-117076192D02*
X181753372Y-117136668D01*
X181753372Y-117136668D02*
X181632420Y-117136668D01*
X181209087Y-117136668D02*
X181209087Y-116290001D01*
X181209087Y-116410953D02*
X181148610Y-116350477D01*
X181148610Y-116350477D02*
X181027658Y-116290001D01*
X181027658Y-116290001D02*
X180846229Y-116290001D01*
X180846229Y-116290001D02*
X180725277Y-116350477D01*
X180725277Y-116350477D02*
X180664801Y-116471430D01*
X180664801Y-116471430D02*
X180664801Y-117136668D01*
X180664801Y-116471430D02*
X180604325Y-116350477D01*
X180604325Y-116350477D02*
X180483372Y-116290001D01*
X180483372Y-116290001D02*
X180301944Y-116290001D01*
X180301944Y-116290001D02*
X180180991Y-116350477D01*
X180180991Y-116350477D02*
X180120515Y-116471430D01*
X180120515Y-116471430D02*
X180120515Y-117136668D01*
X178971468Y-117136668D02*
X178971468Y-116471430D01*
X178971468Y-116471430D02*
X179031944Y-116350477D01*
X179031944Y-116350477D02*
X179152896Y-116290001D01*
X179152896Y-116290001D02*
X179394801Y-116290001D01*
X179394801Y-116290001D02*
X179515754Y-116350477D01*
X178971468Y-117076192D02*
X179092420Y-117136668D01*
X179092420Y-117136668D02*
X179394801Y-117136668D01*
X179394801Y-117136668D02*
X179515754Y-117076192D01*
X179515754Y-117076192D02*
X179576230Y-116955239D01*
X179576230Y-116955239D02*
X179576230Y-116834287D01*
X179576230Y-116834287D02*
X179515754Y-116713334D01*
X179515754Y-116713334D02*
X179394801Y-116652858D01*
X179394801Y-116652858D02*
X179092420Y-116652858D01*
X179092420Y-116652858D02*
X178971468Y-116592382D01*
X178427182Y-117076192D02*
X178306229Y-117136668D01*
X178306229Y-117136668D02*
X178064325Y-117136668D01*
X178064325Y-117136668D02*
X177943372Y-117076192D01*
X177943372Y-117076192D02*
X177882896Y-116955239D01*
X177882896Y-116955239D02*
X177882896Y-116894763D01*
X177882896Y-116894763D02*
X177943372Y-116773811D01*
X177943372Y-116773811D02*
X178064325Y-116713334D01*
X178064325Y-116713334D02*
X178245753Y-116713334D01*
X178245753Y-116713334D02*
X178366706Y-116652858D01*
X178366706Y-116652858D02*
X178427182Y-116531906D01*
X178427182Y-116531906D02*
X178427182Y-116471430D01*
X178427182Y-116471430D02*
X178366706Y-116350477D01*
X178366706Y-116350477D02*
X178245753Y-116290001D01*
X178245753Y-116290001D02*
X178064325Y-116290001D01*
X178064325Y-116290001D02*
X177943372Y-116350477D01*
X193001942Y-118334701D02*
X192518133Y-118334701D01*
X192820514Y-119181368D02*
X192820514Y-118092796D01*
X192820514Y-118092796D02*
X192760037Y-117971844D01*
X192760037Y-117971844D02*
X192639085Y-117911368D01*
X192639085Y-117911368D02*
X192518133Y-117911368D01*
X192094800Y-119181368D02*
X192094800Y-118334701D01*
X192094800Y-118576606D02*
X192034323Y-118455653D01*
X192034323Y-118455653D02*
X191973847Y-118395177D01*
X191973847Y-118395177D02*
X191852895Y-118334701D01*
X191852895Y-118334701D02*
X191731942Y-118334701D01*
X191127181Y-119181368D02*
X191248133Y-119120892D01*
X191248133Y-119120892D02*
X191308610Y-119060415D01*
X191308610Y-119060415D02*
X191369086Y-118939463D01*
X191369086Y-118939463D02*
X191369086Y-118576606D01*
X191369086Y-118576606D02*
X191308610Y-118455653D01*
X191308610Y-118455653D02*
X191248133Y-118395177D01*
X191248133Y-118395177D02*
X191127181Y-118334701D01*
X191127181Y-118334701D02*
X190945752Y-118334701D01*
X190945752Y-118334701D02*
X190824800Y-118395177D01*
X190824800Y-118395177D02*
X190764324Y-118455653D01*
X190764324Y-118455653D02*
X190703848Y-118576606D01*
X190703848Y-118576606D02*
X190703848Y-118939463D01*
X190703848Y-118939463D02*
X190764324Y-119060415D01*
X190764324Y-119060415D02*
X190824800Y-119120892D01*
X190824800Y-119120892D02*
X190945752Y-119181368D01*
X190945752Y-119181368D02*
X191127181Y-119181368D01*
X190159562Y-119181368D02*
X190159562Y-118334701D01*
X190159562Y-118455653D02*
X190099085Y-118395177D01*
X190099085Y-118395177D02*
X189978133Y-118334701D01*
X189978133Y-118334701D02*
X189796704Y-118334701D01*
X189796704Y-118334701D02*
X189675752Y-118395177D01*
X189675752Y-118395177D02*
X189615276Y-118516130D01*
X189615276Y-118516130D02*
X189615276Y-119181368D01*
X189615276Y-118516130D02*
X189554800Y-118395177D01*
X189554800Y-118395177D02*
X189433847Y-118334701D01*
X189433847Y-118334701D02*
X189252419Y-118334701D01*
X189252419Y-118334701D02*
X189131466Y-118395177D01*
X189131466Y-118395177D02*
X189070990Y-118516130D01*
X189070990Y-118516130D02*
X189070990Y-119181368D01*
X187498610Y-119181368D02*
X187498610Y-117911368D01*
X187498610Y-117911368D02*
X187014800Y-117911368D01*
X187014800Y-117911368D02*
X186893848Y-117971844D01*
X186893848Y-117971844D02*
X186833371Y-118032320D01*
X186833371Y-118032320D02*
X186772895Y-118153272D01*
X186772895Y-118153272D02*
X186772895Y-118334701D01*
X186772895Y-118334701D02*
X186833371Y-118455653D01*
X186833371Y-118455653D02*
X186893848Y-118516130D01*
X186893848Y-118516130D02*
X187014800Y-118576606D01*
X187014800Y-118576606D02*
X187498610Y-118576606D01*
X186228610Y-119181368D02*
X186228610Y-118334701D01*
X186228610Y-118576606D02*
X186168133Y-118455653D01*
X186168133Y-118455653D02*
X186107657Y-118395177D01*
X186107657Y-118395177D02*
X185986705Y-118334701D01*
X185986705Y-118334701D02*
X185865752Y-118334701D01*
X185442420Y-119181368D02*
X185442420Y-118334701D01*
X185442420Y-117911368D02*
X185502896Y-117971844D01*
X185502896Y-117971844D02*
X185442420Y-118032320D01*
X185442420Y-118032320D02*
X185381943Y-117971844D01*
X185381943Y-117971844D02*
X185442420Y-117911368D01*
X185442420Y-117911368D02*
X185442420Y-118032320D01*
X184837658Y-118334701D02*
X184837658Y-119181368D01*
X184837658Y-118455653D02*
X184777181Y-118395177D01*
X184777181Y-118395177D02*
X184656229Y-118334701D01*
X184656229Y-118334701D02*
X184474800Y-118334701D01*
X184474800Y-118334701D02*
X184353848Y-118395177D01*
X184353848Y-118395177D02*
X184293372Y-118516130D01*
X184293372Y-118516130D02*
X184293372Y-119181368D01*
X183144324Y-119120892D02*
X183265276Y-119181368D01*
X183265276Y-119181368D02*
X183507181Y-119181368D01*
X183507181Y-119181368D02*
X183628133Y-119120892D01*
X183628133Y-119120892D02*
X183688610Y-119060415D01*
X183688610Y-119060415D02*
X183749086Y-118939463D01*
X183749086Y-118939463D02*
X183749086Y-118576606D01*
X183749086Y-118576606D02*
X183688610Y-118455653D01*
X183688610Y-118455653D02*
X183628133Y-118395177D01*
X183628133Y-118395177D02*
X183507181Y-118334701D01*
X183507181Y-118334701D02*
X183265276Y-118334701D01*
X183265276Y-118334701D02*
X183144324Y-118395177D01*
X182600039Y-119181368D02*
X182600039Y-118334701D01*
X182600039Y-117911368D02*
X182660515Y-117971844D01*
X182660515Y-117971844D02*
X182600039Y-118032320D01*
X182600039Y-118032320D02*
X182539562Y-117971844D01*
X182539562Y-117971844D02*
X182600039Y-117911368D01*
X182600039Y-117911368D02*
X182600039Y-118032320D01*
X181995277Y-118334701D02*
X181995277Y-119604701D01*
X181995277Y-118395177D02*
X181874324Y-118334701D01*
X181874324Y-118334701D02*
X181632419Y-118334701D01*
X181632419Y-118334701D02*
X181511467Y-118395177D01*
X181511467Y-118395177D02*
X181450991Y-118455653D01*
X181450991Y-118455653D02*
X181390515Y-118576606D01*
X181390515Y-118576606D02*
X181390515Y-118939463D01*
X181390515Y-118939463D02*
X181450991Y-119060415D01*
X181450991Y-119060415D02*
X181511467Y-119120892D01*
X181511467Y-119120892D02*
X181632419Y-119181368D01*
X181632419Y-119181368D02*
X181874324Y-119181368D01*
X181874324Y-119181368D02*
X181995277Y-119120892D01*
X180846229Y-119181368D02*
X180846229Y-117911368D01*
X180060038Y-119181368D02*
X180180990Y-119120892D01*
X180180990Y-119120892D02*
X180241467Y-119060415D01*
X180241467Y-119060415D02*
X180301943Y-118939463D01*
X180301943Y-118939463D02*
X180301943Y-118576606D01*
X180301943Y-118576606D02*
X180241467Y-118455653D01*
X180241467Y-118455653D02*
X180180990Y-118395177D01*
X180180990Y-118395177D02*
X180060038Y-118334701D01*
X180060038Y-118334701D02*
X179878609Y-118334701D01*
X179878609Y-118334701D02*
X179757657Y-118395177D01*
X179757657Y-118395177D02*
X179697181Y-118455653D01*
X179697181Y-118455653D02*
X179636705Y-118576606D01*
X179636705Y-118576606D02*
X179636705Y-118939463D01*
X179636705Y-118939463D02*
X179697181Y-119060415D01*
X179697181Y-119060415D02*
X179757657Y-119120892D01*
X179757657Y-119120892D02*
X179878609Y-119181368D01*
X179878609Y-119181368D02*
X180060038Y-119181368D01*
X179273847Y-117911368D02*
X178548133Y-117911368D01*
X178910990Y-119181368D02*
X178910990Y-117911368D01*
D11*
X179835133Y-125320419D02*
X179835133Y-126034704D01*
X179835133Y-126034704D02*
X179882752Y-126177561D01*
X179882752Y-126177561D02*
X179977990Y-126272800D01*
X179977990Y-126272800D02*
X180120847Y-126320419D01*
X180120847Y-126320419D02*
X180216085Y-126320419D01*
X179406561Y-125415657D02*
X179358942Y-125368038D01*
X179358942Y-125368038D02*
X179263704Y-125320419D01*
X179263704Y-125320419D02*
X179025609Y-125320419D01*
X179025609Y-125320419D02*
X178930371Y-125368038D01*
X178930371Y-125368038D02*
X178882752Y-125415657D01*
X178882752Y-125415657D02*
X178835133Y-125510895D01*
X178835133Y-125510895D02*
X178835133Y-125606133D01*
X178835133Y-125606133D02*
X178882752Y-125748990D01*
X178882752Y-125748990D02*
X179454180Y-126320419D01*
X179454180Y-126320419D02*
X178835133Y-126320419D01*
D13*
%TO.C,J1*%
X159762200Y-66484000D02*
X159762200Y-65984000D01*
X159762200Y-63564000D02*
X159762200Y-64564000D01*
X158512200Y-66484000D02*
X159762200Y-66484000D01*
X158512200Y-65784000D02*
X158512200Y-66484000D01*
X156012200Y-66484000D02*
X156012200Y-65784000D01*
X156012200Y-65784000D02*
X158512200Y-65784000D01*
X154762200Y-66484000D02*
X156012200Y-66484000D01*
X154762200Y-65484000D02*
X154762200Y-66484000D01*
X154762200Y-64064000D02*
X154762200Y-63564000D01*
X154762200Y-63564000D02*
X159762200Y-63564000D01*
%TO.C,C2*%
X149130000Y-125275580D02*
X149130000Y-124994420D01*
X150150000Y-125275580D02*
X150150000Y-124994420D01*
%TO.C,C1*%
X151240000Y-125315580D02*
X151240000Y-125034420D01*
X152260000Y-125315580D02*
X152260000Y-125034420D01*
D11*
%TO.C,U1*%
X160085200Y-130618600D02*
X160085200Y-130318600D01*
X160085200Y-130618600D02*
X154585200Y-130618600D01*
X160085200Y-125313600D02*
X161835200Y-125313600D01*
X160085200Y-125108600D02*
X160085200Y-125313600D01*
X160085200Y-125108600D02*
X154585200Y-125108600D01*
X154585200Y-130618600D02*
X154585200Y-130318600D01*
X154585200Y-125108600D02*
X154585200Y-125408600D01*
%TD*%
M02*
