%TF.GenerationSoftware,KiCad,Pcbnew,7.0.9*%
%TF.CreationDate,2023-11-22T22:42:55-07:00*%
%TF.ProjectId,OrnamentSCH,4f726e61-6d65-46e7-9453-43482e6b6963,rev?*%
%TF.SameCoordinates,Original*%
%TF.FileFunction,Copper,L1,Top*%
%TF.FilePolarity,Positive*%
%FSLAX46Y46*%
G04 Gerber Fmt 4.6, Leading zero omitted, Abs format (unit mm)*
G04 Created by KiCad (PCBNEW 7.0.9) date 2023-11-22 22:42:55*
%MOMM*%
%LPD*%
G01*
G04 APERTURE LIST*
G04 Aperture macros list*
%AMRoundRect*
0 Rectangle with rounded corners*
0 $1 Rounding radius*
0 $2 $3 $4 $5 $6 $7 $8 $9 X,Y pos of 4 corners*
0 Add a 4 corners polygon primitive as box body*
4,1,4,$2,$3,$4,$5,$6,$7,$8,$9,$2,$3,0*
0 Add four circle primitives for the rounded corners*
1,1,$1+$1,$2,$3*
1,1,$1+$1,$4,$5*
1,1,$1+$1,$6,$7*
1,1,$1+$1,$8,$9*
0 Add four rect primitives between the rounded corners*
20,1,$1+$1,$2,$3,$4,$5,0*
20,1,$1+$1,$4,$5,$6,$7,0*
20,1,$1+$1,$6,$7,$8,$9,0*
20,1,$1+$1,$8,$9,$2,$3,0*%
G04 Aperture macros list end*
%TA.AperFunction,NonConductor*%
%ADD10C,0.200000*%
%TD*%
%TA.AperFunction,SMDPad,CuDef*%
%ADD11RoundRect,0.200000X-0.200000X-0.275000X0.200000X-0.275000X0.200000X0.275000X-0.200000X0.275000X0*%
%TD*%
%TA.AperFunction,SMDPad,CuDef*%
%ADD12RoundRect,0.218750X-0.218750X-0.256250X0.218750X-0.256250X0.218750X0.256250X-0.218750X0.256250X0*%
%TD*%
%TA.AperFunction,ViaPad*%
%ADD13C,0.800000*%
%TD*%
%TA.AperFunction,Conductor*%
%ADD14C,0.250000*%
%TD*%
G04 APERTURE END LIST*
D10*
X156750000Y-34860000D02*
X157040000Y-35000000D01*
X157270000Y-35310000D01*
X158700000Y-39100000D01*
X163830000Y-39290000D01*
X164180000Y-39330000D01*
X164430000Y-39410000D01*
X164580000Y-39490000D01*
X164660000Y-39630000D01*
X164660000Y-39830000D01*
X164600000Y-39980000D01*
X164200000Y-40390000D01*
X163350000Y-40980000D01*
X162460000Y-41500000D01*
X160820000Y-42500000D01*
X160510000Y-42690000D01*
X160360000Y-42810000D01*
X160320000Y-42900000D01*
X160500000Y-43410000D01*
X161000000Y-44700000D01*
X161650000Y-46490000D01*
X161860000Y-47170000D01*
X161830000Y-47430000D01*
X161720000Y-47570000D01*
X161410000Y-47600000D01*
X160940000Y-47500000D01*
X160300000Y-47210000D01*
X158530000Y-46130000D01*
X158090000Y-45920000D01*
X157810000Y-45920000D01*
X157680000Y-46110000D01*
X158790000Y-48620000D01*
X159630000Y-50200000D01*
X161080000Y-52450000D01*
X161980000Y-53430000D01*
X163110000Y-54580000D01*
X164410000Y-55770000D01*
X165800000Y-56930000D01*
X167190000Y-57890000D01*
X168440000Y-58520000D01*
X169450000Y-59270000D01*
X169700000Y-59590000D01*
X169470000Y-59920000D01*
X168790000Y-60560000D01*
X167790000Y-61100000D01*
X167060000Y-61170000D01*
X166600000Y-61350000D01*
X166390000Y-61680000D01*
X166390000Y-62480000D01*
X166800000Y-63590000D01*
X168290000Y-65860000D01*
X169480000Y-67400000D01*
X170780000Y-68860000D01*
X173350000Y-71360000D01*
X175510000Y-73040000D01*
X176650000Y-73770000D01*
X177500000Y-74500000D01*
X177930000Y-75040000D01*
X178040000Y-75720000D01*
X177820000Y-76340000D01*
X177210000Y-76930000D01*
X176270000Y-77420000D01*
X175090000Y-77810000D01*
X173810000Y-77980000D01*
X172730000Y-78170000D01*
X172210000Y-78450000D01*
X172100000Y-79100000D01*
X172750000Y-80440000D01*
X174090000Y-82340000D01*
X176030000Y-84710000D01*
X178680000Y-87490000D01*
X181060000Y-89200000D01*
X184180000Y-90680000D01*
X184750000Y-91050000D01*
X184790000Y-91200000D01*
X183290000Y-91270000D01*
X182160000Y-91470000D01*
X181860000Y-91700000D01*
X181810000Y-92120000D01*
X186430000Y-96130000D01*
X188190000Y-97760000D01*
X188390000Y-98140000D01*
X186960000Y-98650000D01*
X183890000Y-99180000D01*
X179080000Y-99820000D01*
X178400000Y-100120000D01*
X178120000Y-100540000D01*
X178250000Y-101140000D01*
X182500000Y-106200000D01*
X183180000Y-106930000D01*
X184870000Y-108640000D01*
X187440000Y-110970000D01*
X191060000Y-113320000D01*
X192590000Y-114160000D01*
X196920000Y-115750000D01*
X198260000Y-116300000D01*
X198360000Y-116580000D01*
X197940000Y-116750000D01*
X196380000Y-117130000D01*
X195620000Y-117600000D01*
X195350000Y-118340000D01*
X195350000Y-119090000D01*
X201260000Y-123560000D01*
X202620000Y-124590000D01*
X203050000Y-125020000D01*
X203010000Y-125640000D01*
X202630000Y-126040000D01*
X201850000Y-126380000D01*
X199240000Y-127110000D01*
X195320000Y-128200000D01*
X193020000Y-129000000D01*
X189770000Y-130530000D01*
X187800000Y-131800000D01*
X186990000Y-131990000D01*
X184690000Y-131810000D01*
X180500000Y-131300000D01*
X176670000Y-131020000D01*
X172780000Y-131170000D01*
X168680000Y-131540000D01*
X164070000Y-132380000D01*
X161220000Y-133360000D01*
X161810000Y-146790000D01*
X160830000Y-147090000D01*
X159470000Y-146910000D01*
X159040000Y-146510000D01*
X158730000Y-146510000D01*
X157900000Y-146840000D01*
X154730000Y-147050000D01*
X151630000Y-146980000D01*
X151290000Y-146860000D01*
X151440000Y-140860000D01*
X151540000Y-132440000D01*
X146230000Y-131630000D01*
X140460000Y-131160000D01*
X135450000Y-130980000D01*
X132630000Y-131350000D01*
X127500000Y-132190000D01*
X126150000Y-132160000D01*
X120280000Y-128830000D01*
X110380000Y-125830000D01*
X109910000Y-125190000D01*
X114580000Y-121670000D01*
X120900000Y-116190000D01*
X123670000Y-113310000D01*
X123690000Y-112390000D01*
X121160000Y-110720000D01*
X120420000Y-110120000D01*
X123650000Y-109090000D01*
X129230000Y-106180000D01*
X132260000Y-103770000D01*
X134770000Y-100710000D01*
X134730000Y-100120000D01*
X134120000Y-99890000D01*
X129570000Y-99320000D01*
X126660000Y-98770000D01*
X125160000Y-98340000D01*
X124780000Y-98010000D01*
X131150000Y-94230000D01*
X135850000Y-90400000D01*
X136010000Y-89810000D01*
X135910000Y-89290000D01*
X135330000Y-88960000D01*
X132130000Y-88780000D01*
X137430000Y-84360000D01*
X142050000Y-79630000D01*
X144100000Y-76710000D01*
X144080000Y-75860000D01*
X143700000Y-75300000D01*
X138000000Y-75400000D01*
X137320000Y-75280000D01*
X137170000Y-74890000D01*
X141500000Y-71570000D01*
X144160000Y-69140000D01*
X144170000Y-68670000D01*
X141740000Y-68680000D01*
X141510000Y-68440000D01*
X147720000Y-63250000D01*
X148920000Y-61960000D01*
X149010000Y-61420000D01*
X146150000Y-61130000D01*
X144970000Y-60660000D01*
X144540000Y-60050000D01*
X148620000Y-56300000D01*
X151740000Y-52930000D01*
X153850000Y-49590000D01*
X155110000Y-46570000D01*
X155080000Y-46230000D01*
X154890000Y-46070000D01*
X152450000Y-47430000D01*
X151670000Y-47620000D01*
X151200000Y-47530000D01*
X151100000Y-47220000D01*
X151830000Y-44910000D01*
X152670000Y-42770000D01*
X148150000Y-39970000D01*
X148040000Y-39540000D01*
X148490000Y-39250000D01*
X154100000Y-39140000D01*
X155840000Y-35000000D01*
X156490000Y-34830000D01*
X156540000Y-34830000D01*
X156750000Y-34860000D01*
D11*
%TO.P,R8,1*%
%TO.N,/PB4*%
X161201600Y-106222800D03*
%TO.P,R8,2*%
%TO.N,Net-(D8-A)*%
X162851600Y-106222800D03*
%TD*%
D12*
%TO.P,D4,1,K*%
%TO.N,GND*%
X148025200Y-67819900D03*
%TO.P,D4,2,A*%
%TO.N,Net-(D4-A)*%
X149600200Y-67819900D03*
%TD*%
D11*
%TO.P,R7,1*%
%TO.N,/PB3*%
X155486600Y-43129200D03*
%TO.P,R7,2*%
%TO.N,Net-(D7-A)*%
X157136600Y-43129200D03*
%TD*%
D12*
%TO.P,D6,1,K*%
%TO.N,GND*%
X147688700Y-115087400D03*
%TO.P,D6,2,A*%
%TO.N,Net-(D6-A)*%
X149263700Y-115087400D03*
%TD*%
%TO.P,D1,1,K*%
%TO.N,GND*%
X135229500Y-109143800D03*
%TO.P,D1,2,A*%
%TO.N,Net-(D1-A)*%
X136804500Y-109143800D03*
%TD*%
D11*
%TO.P,R1,1*%
%TO.N,/PB3*%
X135166600Y-107467400D03*
%TO.P,R1,2*%
%TO.N,Net-(D1-A)*%
X136816600Y-107467400D03*
%TD*%
%TO.P,R3,1*%
%TO.N,/PB3*%
X157874200Y-83820000D03*
%TO.P,R3,2*%
%TO.N,Net-(D3-A)*%
X159524200Y-83820000D03*
%TD*%
D12*
%TO.P,D7,1,K*%
%TO.N,GND*%
X155549500Y-44780200D03*
%TO.P,D7,2,A*%
%TO.N,Net-(D7-A)*%
X157124500Y-44780200D03*
%TD*%
D11*
%TO.P,R2,1*%
%TO.N,/PB4*%
X143802600Y-89103200D03*
%TO.P,R2,2*%
%TO.N,Net-(D2-A)*%
X145452600Y-89103200D03*
%TD*%
D12*
%TO.P,D5,1,K*%
%TO.N,GND*%
X172313500Y-89865200D03*
%TO.P,D5,2,A*%
%TO.N,Net-(D5-A)*%
X173888500Y-89865200D03*
%TD*%
D11*
%TO.P,R6,1*%
%TO.N,/PB4*%
X147575000Y-116865400D03*
%TO.P,R6,2*%
%TO.N,Net-(D6-A)*%
X149225000Y-116865400D03*
%TD*%
D12*
%TO.P,D8,1,K*%
%TO.N,GND*%
X161162800Y-107899200D03*
%TO.P,D8,2,A*%
%TO.N,Net-(D8-A)*%
X162737800Y-107899200D03*
%TD*%
D11*
%TO.P,R10,1*%
%TO.N,/PB4*%
X177343800Y-112801400D03*
%TO.P,R10,2*%
%TO.N,Net-(D10-A)*%
X178993800Y-112801400D03*
%TD*%
%TO.P,R4,1*%
%TO.N,/PB4*%
X147987700Y-66067300D03*
%TO.P,R4,2*%
%TO.N,Net-(D4-A)*%
X149637700Y-66067300D03*
%TD*%
%TO.P,R9,1*%
%TO.N,/PB3*%
X164249600Y-68046600D03*
%TO.P,R9,2*%
%TO.N,Net-(D9-A)*%
X165899600Y-68046600D03*
%TD*%
D12*
%TO.P,D9,1,K*%
%TO.N,GND*%
X164261700Y-69723000D03*
%TO.P,D9,2,A*%
%TO.N,Net-(D9-A)*%
X165836700Y-69723000D03*
%TD*%
%TO.P,D10,1,K*%
%TO.N,GND*%
X177406700Y-111048800D03*
%TO.P,D10,2,A*%
%TO.N,Net-(D10-A)*%
X178981700Y-111048800D03*
%TD*%
D11*
%TO.P,R5,1*%
%TO.N,/PB3*%
X172250600Y-88239600D03*
%TO.P,R5,2*%
%TO.N,Net-(D5-A)*%
X173900600Y-88239600D03*
%TD*%
D12*
%TO.P,D2,1,K*%
%TO.N,GND*%
X143865500Y-87376000D03*
%TO.P,D2,2,A*%
%TO.N,Net-(D2-A)*%
X145440500Y-87376000D03*
%TD*%
%TO.P,D3,1,K*%
%TO.N,GND*%
X157937100Y-85496400D03*
%TO.P,D3,2,A*%
%TO.N,Net-(D3-A)*%
X159512100Y-85496400D03*
%TD*%
D13*
%TO.N,/PB3*%
X153980000Y-44020000D03*
X159186800Y-126551500D03*
X156610000Y-46110000D03*
%TO.N,/PB4*%
X159318500Y-127995600D03*
%TO.N,GND*%
X158410800Y-68295500D03*
X163630000Y-110960000D03*
X153090000Y-123680000D03*
X165140000Y-108160000D03*
X147110000Y-87430000D03*
X158410800Y-86623200D03*
X142803500Y-114285500D03*
X158450000Y-129050000D03*
X144470000Y-84980000D03*
%TD*%
D14*
%TO.N,/PB3*%
X172250600Y-88239600D02*
X165049200Y-81038200D01*
X165049200Y-81038200D02*
X165049200Y-72640800D01*
X159186800Y-126551500D02*
X159186800Y-123718800D01*
X136016400Y-106617600D02*
X142085600Y-106617600D01*
X165049200Y-72640800D02*
X166870000Y-70820000D01*
X159186800Y-123718800D02*
X142085600Y-106617600D01*
X154110800Y-43129200D02*
X155486600Y-43129200D01*
X156336900Y-60133900D02*
X164249600Y-68046600D01*
X160656000Y-81038200D02*
X165049200Y-81038200D01*
X156610000Y-46450000D02*
X156610000Y-46110000D01*
X157874200Y-83820000D02*
X160656000Y-81038200D01*
X166870000Y-70820000D02*
X166870000Y-67560000D01*
X166870000Y-67560000D02*
X166330000Y-67020000D01*
X142085600Y-106617600D02*
X142085600Y-99608600D01*
X135166600Y-107467400D02*
X136016400Y-106617600D01*
X166330000Y-67020000D02*
X165276200Y-67020000D01*
X153980000Y-43260000D02*
X154110800Y-43129200D01*
X156336900Y-46723100D02*
X156610000Y-46450000D01*
X153980000Y-44020000D02*
X153980000Y-43260000D01*
X142085600Y-99608600D02*
X157874200Y-83820000D01*
X165276200Y-67020000D02*
X164249600Y-68046600D01*
X156336900Y-46723100D02*
X156336900Y-60133900D01*
%TO.N,Net-(D1-A)*%
X136804500Y-109143800D02*
X136816600Y-109131700D01*
X136816600Y-109131700D02*
X136816600Y-107467400D01*
%TO.N,/PB4*%
X133944500Y-109113900D02*
X141696000Y-116865400D01*
X143081300Y-88381900D02*
X143802600Y-89103200D01*
X160356900Y-107067500D02*
X161201600Y-106222800D01*
X143802600Y-89103200D02*
X143802600Y-95843400D01*
X163275600Y-112801400D02*
X160356900Y-109882700D01*
X147575000Y-116865400D02*
X158705200Y-127995600D01*
X177343800Y-112801400D02*
X163275600Y-112801400D01*
X158705200Y-127995600D02*
X159318500Y-127995600D01*
X141696000Y-116865400D02*
X147575000Y-116865400D01*
X143802600Y-95843400D02*
X133944500Y-105701500D01*
X144710000Y-69345000D02*
X144710000Y-80005100D01*
X159318500Y-127995600D02*
X163275600Y-124038500D01*
X133944500Y-105701500D02*
X133944500Y-109113900D01*
X163275600Y-124038500D02*
X163275600Y-112801400D01*
X160356900Y-109882700D02*
X160356900Y-107067500D01*
X147987700Y-66067300D02*
X144710000Y-69345000D01*
X144710000Y-80005100D02*
X143081300Y-81633800D01*
X143081300Y-81633800D02*
X143081300Y-88381900D01*
%TO.N,Net-(D2-A)*%
X145440500Y-87376000D02*
X145452600Y-87388100D01*
X145452600Y-87388100D02*
X145452600Y-89103200D01*
%TO.N,Net-(D3-A)*%
X159512100Y-85496400D02*
X159524200Y-85484300D01*
X159524200Y-85484300D02*
X159524200Y-83820000D01*
%TO.N,Net-(D4-A)*%
X149637700Y-67782400D02*
X149637700Y-66067300D01*
X149600200Y-67819900D02*
X149637700Y-67782400D01*
%TO.N,Net-(D5-A)*%
X173900600Y-89853100D02*
X173900600Y-88239600D01*
X173888500Y-89865200D02*
X173900600Y-89853100D01*
%TO.N,Net-(D6-A)*%
X149263700Y-115087400D02*
X149225000Y-115126100D01*
X149225000Y-115126100D02*
X149225000Y-116865400D01*
%TO.N,Net-(D7-A)*%
X157136600Y-44768100D02*
X157136600Y-43129200D01*
X157124500Y-44780200D02*
X157136600Y-44768100D01*
%TO.N,Net-(D8-A)*%
X162851600Y-107785400D02*
X162851600Y-106222800D01*
X162737800Y-107899200D02*
X162851600Y-107785400D01*
%TO.N,Net-(D9-A)*%
X165836700Y-69723000D02*
X165899600Y-69660100D01*
X165899600Y-69660100D02*
X165899600Y-68046600D01*
%TO.N,Net-(D10-A)*%
X178993800Y-111060900D02*
X178993800Y-112801400D01*
X178981700Y-111048800D02*
X178993800Y-111060900D01*
%TO.N,GND*%
X161162800Y-109202800D02*
X161162800Y-107899200D01*
X134394900Y-106662400D02*
X144535700Y-96521600D01*
X158410800Y-68295500D02*
X159838300Y-69723000D01*
X159838300Y-69723000D02*
X164261700Y-69723000D01*
X162000000Y-89932100D02*
X162000000Y-103410000D01*
X177406700Y-111048800D02*
X175647900Y-109290000D01*
X148828000Y-82413500D02*
X148828000Y-68622700D01*
X143865500Y-85584500D02*
X143865500Y-87376000D01*
X163630000Y-110960000D02*
X162920000Y-110960000D01*
X146250000Y-89640000D02*
X146250000Y-88290000D01*
X153090000Y-123680000D02*
X158450000Y-129040000D01*
X140371200Y-114285500D02*
X135229500Y-109143800D01*
X155549500Y-65454100D02*
X152380900Y-68622700D01*
X142803500Y-114285500D02*
X140371200Y-114285500D01*
X175647900Y-109290000D02*
X162553600Y-109290000D01*
X144535700Y-91354300D02*
X146250000Y-89640000D01*
X135229500Y-109143800D02*
X134394900Y-108309200D01*
X162920000Y-110960000D02*
X161162800Y-109202800D01*
X148828000Y-68622700D02*
X148025200Y-67819900D01*
X143605400Y-115087400D02*
X147688700Y-115087400D01*
X155549500Y-65454100D02*
X158390900Y-68295500D01*
X155549500Y-44780200D02*
X155549500Y-65454100D01*
X172313500Y-89865200D02*
X161933100Y-89865200D01*
X143865500Y-87376000D02*
X148828000Y-82413500D01*
X161652800Y-89865200D02*
X158410800Y-86623200D01*
X158450000Y-129040000D02*
X158450000Y-129050000D01*
X162553600Y-109290000D02*
X161162800Y-107899200D01*
X144470000Y-84980000D02*
X143865500Y-85584500D01*
X165430000Y-106840000D02*
X165430000Y-107870000D01*
X144535700Y-96521600D02*
X144535700Y-91354300D01*
X161933100Y-89865200D02*
X161652800Y-89865200D01*
X134394900Y-108309200D02*
X134394900Y-106662400D01*
X161933100Y-89865200D02*
X162000000Y-89932100D01*
X158390900Y-68295500D02*
X158410800Y-68295500D01*
X165430000Y-107870000D02*
X165140000Y-108160000D01*
X158410800Y-85970100D02*
X157937100Y-85496400D01*
X152380900Y-68622700D02*
X148828000Y-68622700D01*
X142803500Y-114285500D02*
X143605400Y-115087400D01*
X162000000Y-103410000D02*
X165430000Y-106840000D01*
X146250000Y-88290000D02*
X147110000Y-87430000D01*
X158410800Y-86623200D02*
X158410800Y-85970100D01*
%TD*%
M02*
